<svg fill="none" height="24" viewBox="0 0 24 24" width="24" xmlns="http://www.w3.org/2000/svg"><path d="m24 1.76471v20.47059c0 .468-.1859.9169-.5169 1.2478-.3309.331-.7798.5169-1.2478.5169h-20.47059c-.46803 0-.916893-.1859-1.24784-.5169-.330946-.3309-.51687-.7798-.51687-1.2478v-20.47059c0-.46803.185924-.916893.51687-1.24784.330947-.330946.77981-.51687 1.24784-.51687h20.47059c.468 0 .9169.185924 1.2478.51687.331.330947.5169.77981.5169 1.24784zm-16.94118 7.41176h-3.52941v11.29413h3.52941zm.31765-3.88235c.00186-.26697-.04888-.5317-.14933-.77906s-.24864-.47251-.43611-.6626c-.18746-.19009-.41054-.34139-.65648-.44526-.24594-.10388-.50993-.15829-.7769-.16014h-.06353c-.54292 0-1.06359.21567-1.44749.59957s-.59957.90457-.59957 1.44749c0 .54291.21567 1.06359.59957 1.44749.3839.38389.90457.59957 1.44749.59957.26699.00656.53266-.03954.78182-.13568.24917-.09614.47695-.24044.67033-.42464s.34857-.4047.4567-.6489.16709-.50732.1735-.77431zm13.09413 8.31528c0-3.3953-2.16-4.71528-4.3059-4.71528-.7026-.03518-1.4022.11447-2.0289.43402s-1.1587.79786-1.5429 1.38716h-.0988v-1.53883h-3.31763v11.29413h3.52943v-6.0071c-.051-.6152.1428-1.2257.5393-1.6989.3965-.4731.9637-.7707 1.5783-.8281h.1341c1.1224 0 1.9553.7059 1.9553 2.4847v6.0494h3.5295z" fill="#fff"/></svg>