<svg
  fill="none"
  height="22"
  viewBox="0 0 28 22"
  width="28"
  xmlns="http://www.w3.org/2000/svg"
>
  <path
    d="m24.6036 5.5603c.0163.23509.0163.47017.0163.70743 0 7.22917-5.5035 15.56667-15.56669 15.56667v-.0043c-2.97272.0043-5.88368-.8472-8.386218-2.4528.432258.052.866678.078 1.302188.0791 2.46354.0022 4.85666-.8244 6.79477-2.3465-2.34112-.0444-4.39407-1.5709-5.11124-3.7993.82009.1582 1.66511.1257 2.47003-.0943-2.55237-.5156-4.38865-2.7582-4.38865-5.36255 0-.02383 0-.04658 0-.06933.76051.42359 1.61203.65868 2.48304.68468-2.40395-1.60661-3.14496-4.80466-1.69328-7.30503 2.77771 3.41797 6.87603 5.49583 11.27555 5.71575-.441-1.9002.1614-3.89139 1.5827-5.22716 2.2036-2.071369 5.6692-1.965201 7.7406.23725 1.2252-.24159 2.3996-.69118 3.4743-1.328187-.4084 1.266437-1.2632 2.342207-2.4051 3.025797 1.0845-.12784 2.144-.41817 3.1418-.86126-.7346 1.10068-1.6597 2.05945-2.7301 2.83404z"
  fill="#fff"
  />
</svg>

